<svg fill="none" height="1em" viewBox="0 0 17 17" width="1em" xmlns="http://www.w3.org/2000/svg" xmlns:xlink="http://www.w3.org/1999/xlink"><mask id="a" height="17" maskUnits="userSpaceOnUse" width="17" x="0" y="0"><path d="m.5.5h16v16h-16z" fill="#fff"/></mask><g mask="url(#a)"><path d="m8.49989 12.6667 3.01671-3.01669-1.2167-1.25-.91668.91667v-2.68334h-1.76667v2.68334l-.91666-.91667-1.21667 1.25zm-4.76667-6.50002v7.10002h9.53338v-7.10002zm-.23333 8.86662c-.42167 0-.78262-.1444-1.08284-.4333-.30033-.2889-.4505-.6444-.4505-1.0667v-8.74996c0-.2.03611-.39722.10834-.59167.07222-.19444.16944-.36944.29166-.525l.85-1.03333c.16667-.21111.37045-.375.61134-.49167.24077-.11666.49255-.175.75533-.175h7.83338c.2587 0 .5068.06112.7441.18334.2372.12222.4392.28333.6059.48333l.85.98333c.1333.15556.2361.33084.3083.52584s.1083.3975.1083.6075v8.78329c0 .4223-.1501.7778-.4505 1.0667-.3002.2889-.6611.4333-1.0828.4333zm.55-10.63329h8.91671l-.5667-.66667h-7.80001z" fill="currentColor"/></g></svg>