<svg xmlns="http://www.w3.org/2000/svg" width="1em" height="1em" viewBox="0 0 12 12" xmlns="http://www.w3.org/2000/svg" xml:space="preserve" style="fill-rule:evenodd;clip-rule:evenodd;stroke-linejoin:round;stroke-miterlimit:2"><path d="M10.877 6.452c-.248-.09-.11-.402.113-.818.858-1.597-1.008-2.475-1.728-2.441-.62.03-1.857.685-2.15.833-.002.002-.003-.002 0-.004 1.364-.807 2.38-1.588 2.012-1.974-.624-.656-1.573-.224-2.112 0-.538.222-1.2 1.143-1.753 1.656-.477.442-1.325.724-1.78.948-.455.223-.548.788-.29.967.255.204.483.446.676.72.221.272.649.247.856.232.207-.015.318.313.041.461-.276.15-.874.513-.679.806.318.476.76.43 1.077.384.318-.046.927-.896 1.893-.982.541-.047.373.373.168.61a.224.224 0 0 0-.075.17c0 .09.051.17.128.203h3.562c.284 0 .33-.223.62-.897.29-.673-.33-.785-.58-.874ZM4.622 5.279c-.149 0-.27-.13-.27-.29 0-.16.121-.292.27-.292.148 0 .27.132.27.291 0 .16-.122.291-.27.291Zm1.033 3.546c-.375 0-.684.333-.684.738 0 .405.31.737.684.737.375 0 .684-.333.684-.737 0-.405-.309-.738-.684-.738Z" fill="currentColor"/><path d="M3.943 8.402v1.38h.932a.929.929 0 0 1-.027-.223c0-.479.365-.872.808-.872.444 0 .809.393.809.872a.94.94 0 0 1-.027.223h3.025a.94.94 0 0 1-.027-.223c0-.479.365-.872.809-.872.443 0 .808.393.808.872a.94.94 0 0 1-.027.223h.763v-1.38H3.943Z" fill="currentColor"/><path d="M10.244 8.825c-.375 0-.684.333-.684.738 0 .405.309.737.684.737.375 0 .684-.333.684-.737 0-.405-.31-.738-.684-.738Zm-9.91 1.371c-.067 0-.123-.06-.123-.132 0-.057.035-.108.084-.126.027-.01.053-.017.078-.024a.482.482 0 0 0 .084-.028.396.396 0 0 0 .018-.058.343.343 0 0 1 .071-.157 1.64 1.64 0 0 1 .42-.312.47.47 0 0 0 .029-.07.292.292 0 0 1 .14-.195.8.8 0 0 1 .074-.029.847.847 0 0 1 .036-.497l.006-.013c.025-.059.072-.168.176-.185a.695.695 0 0 1 .643.293.477.477 0 0 1 .077.37.506.506 0 0 1 .412.04l.059.024c.09.027.166.092.211.18a.214.214 0 0 1-.006.168.709.709 0 0 1-.197.251.74.74 0 0 0 .092.005c.016 0 .036.003.057.004a.339.339 0 0 0 .068.002c.047-.018.096-.033.145-.045l.029-.006a.285.285 0 0 1-.07-.09.229.229 0 0 1 .043-.279.386.386 0 0 1 .457.037.259.259 0 0 1 .092.177.128.128 0 0 0 .07-.071c.03-.068-.01-.158-.074-.287-.072-.144-.17-.34-.02-.501a.31.31 0 0 1 .282-.081c.083.01.157.057.203.127l.003.005a.21.21 0 0 1 .032.26.275.275 0 0 1-.145.1l-.026.01a.22.22 0 0 1-.066.051.515.515 0 0 1 .031.433.414.414 0 0 1-.44.234.94.94 0 0 1-.36.142.525.525 0 0 0-.083.026l-.029.011a.378.378 0 0 1-.161.01l-.038-.003a.757.757 0 0 1-.377-.09.49.49 0 0 1-.15.056c-.244.044-.686-.06-.852-.328a.692.692 0 0 1-.082-.278l-.013.005a.644.644 0 0 0-.019.05.332.332 0 0 1-.159.22c-.125.065-.24.15-.341.25-.005.015-.01.03-.013.045a.319.319 0 0 1-.14.224.647.647 0 0 1-.139.05l-.06.018a.116.116 0 0 1-.039.007Zm1.164-.926a.54.54 0 0 0 .045.188c.089.143.376.234.567.219a1.34 1.34 0 0 1-.127-.19.256.256 0 0 1 .003-.242.49.49 0 0 1-.174.012l-.028-.001c-.095 0-.191.004-.286.014Zm.706.098a.873.873 0 0 0 .151.2.595.595 0 0 0 .226-.2.26.26 0 0 0-.041-.02 1.89 1.89 0 0 1-.07-.028c-.15-.062-.205-.07-.224-.03a.477.477 0 0 1-.023.044l-.02.034Zm-.713-.74-.018.04-.009.019a.583.583 0 0 0-.015.322c.15-.019.302-.024.453-.015a.194.194 0 0 0-.031-.175.469.469 0 0 0-.38-.19Zm2.238.191a.066.066 0 0 0-.04.01c-.008.008-.006.024 0 .046a.2.2 0 0 1 .072-.053.15.15 0 0 0-.032-.003Zm.275-.123v.002-.002Z" fill="currentColor"/></svg>