<svg width="1em" height="1em" viewBox="0 0 16 16" xmlns="http://www.w3.org/2000/svg" xml:space="preserve" style="fill-rule:evenodd;clip-rule:evenodd;stroke-linejoin:round;stroke-miterlimit:2"><g fill="currentColor"><path d="M14.503 10.511c-.331-.119-.147-.535.151-1.09 1.144-2.13-1.344-3.3-2.304-3.255-.828.04-2.476.914-2.866 1.111-.003.002-.005-.003-.002-.005 1.82-1.076 3.175-2.118 2.684-2.633-.832-.874-2.098-.298-2.816 0-.718.297-1.601 1.525-2.337 2.208-.636.59-1.767.966-2.374 1.264-.607.298-.731 1.051-.387 1.29.341.272.645.595.902.959.295.364.865.33 1.141.31.276-.02.424.417.055.615-.368.199-1.165.684-.905 1.074.423.635 1.012.575 1.435.513.424-.062 1.237-1.195 2.525-1.31.721-.063.497.497.224.814a.298.298 0 0 0-.1.227c0 .119.068.226.17.27h4.749c.379 0 .441-.298.828-1.196.386-.898-.442-1.047-.773-1.166Zm-8.34-1.563c-.198 0-.36-.175-.36-.388 0-.213.162-.388.36-.388.197 0 .36.175.36.388 0 .213-.163.388-.36.388ZM7.541 13.676c-.5 0-.912.443-.912.983s.412.983.912.983.912-.444.912-.983c0-.54-.412-.983-.912-.983Z"/><path d="M5.258 13.111v1.84H6.5a1.249 1.249 0 0 1-.036-.297c0-.638.487-1.163 1.078-1.163.592 0 1.078.525 1.078 1.163 0 .1-.012.2-.036.298h4.034a1.247 1.247 0 0 1-.036-.298c0-.638.487-1.163 1.078-1.163.591 0 1.078.525 1.078 1.163 0 .1-.012.2-.036.298h1.017v-1.84H5.258Z"/><path d="M13.659 13.676c-.5 0-.912.443-.912.983s.412.983.912.983.912-.444.912-.983c0-.54-.412-.983-.912-.983ZM.446 15.504c-.09 0-.164-.08-.164-.177 0-.076.046-.144.112-.168.036-.013.07-.022.104-.031a.635.635 0 0 0 .112-.038.491.491 0 0 0 .024-.077.456.456 0 0 1 .095-.21c.166-.17.355-.31.56-.416a.613.613 0 0 0 .038-.093.39.39 0 0 1 .187-.26c.032-.014.065-.027.099-.038a1.13 1.13 0 0 1 .047-.663l.008-.018c.034-.078.097-.223.235-.246a.925.925 0 0 1 .857.39c.1.14.139.322.103.495a.671.671 0 0 1 .55.052l.078.032c.12.036.222.123.282.24a.286.286 0 0 1-.008.224.956.956 0 0 1-.263.335c.04.005.081.007.122.007.022 0 .049.003.077.005.03.004.06.005.09.003a1.79 1.79 0 0 1 .194-.061 1.27 1.27 0 0 0 .038-.008.368.368 0 0 1-.094-.12.304.304 0 0 1 .058-.371.515.515 0 0 1 .609.049c.07.057.114.142.123.236a.17.17 0 0 0 .093-.095c.041-.09-.012-.21-.098-.383-.096-.192-.226-.454-.028-.668a.412.412 0 0 1 .377-.108.382.382 0 0 1 .271.17l.004.006a.28.28 0 0 1 .042.348.367.367 0 0 1-.193.132l-.034.014a.283.283 0 0 1-.088.068.687.687 0 0 1 .041.577.552.552 0 0 1-.587.312c-.147.097-.31.161-.48.19a.664.664 0 0 0-.11.034l-.039.015a.504.504 0 0 1-.215.012l-.051-.003a1.01 1.01 0 0 1-.502-.12.652.652 0 0 1-.2.075c-.326.059-.915-.08-1.136-.438a.929.929 0 0 1-.11-.37.998.998 0 0 0-.017.007c-.008.018-.018.046-.025.067a.443.443 0 0 1-.212.292c-.167.087-.32.2-.455.335a.636.636 0 0 0-.017.059.426.426 0 0 1-.188.299.842.842 0 0 1-.184.067c-.027.007-.054.014-.08.023a.154.154 0 0 1-.052.01Zm1.552-1.235a.708.708 0 0 0 .06.25c.118.191.501.313.756.292a1.777 1.777 0 0 1-.17-.254.343.343 0 0 1 .005-.321.672.672 0 0 1-.233.015l-.037-.001a3.135 3.135 0 0 0-.381.019Zm.941.13c.055.1.123.19.202.268a.798.798 0 0 0 .301-.268.332.332 0 0 0-.055-.026 2.253 2.253 0 0 1-.092-.037c-.202-.083-.275-.093-.3-.04a.744.744 0 0 1-.03.058.713.713 0 0 0-.026.045Zm2.236-.436Zm-3.187-.549-.024.051-.011.026a.772.772 0 0 0-.02.43 3.257 3.257 0 0 1 .603-.02.26.26 0 0 0-.041-.234.624.624 0 0 0-.507-.253Zm2.985.254a.09.09 0 0 0-.055.013c-.01.01-.007.032.001.061a.27.27 0 0 1 .096-.07.252.252 0 0 0-.042-.004Zm.366-.165.001.003-.001-.003Z"/></g></svg>